<?xml version="1.0" encoding="UTF-8"?><svg id="OBJECTS" xmlns="http://www.w3.org/2000/svg" viewBox="0 0 457.76 395.52"><defs><style>.cls-1{letter-spacing:0em;}.cls-2,.cls-3,.cls-4,.cls-5{fill:#fff;}.cls-6{fill:#3b3e7d;}.cls-3{opacity:.3;}.cls-7{fill:#18285d;}.cls-8{fill:#61b3ff;}.cls-9{fill:#abd3f2;}.cls-4,.cls-10{font-family:Montserrat-Black, Montserrat;font-size:23.23px;}.cls-5{opacity:.2;}.cls-11{letter-spacing:-.04em;}.cls-12{fill:#90c3ef;}.cls-13{fill:#e9e2e8;}.cls-14,.cls-10{fill:#005ec9;}.cls-15{fill:#cae6fe;}.cls-16{fill:#009ef3;}.cls-17{fill:#61c2ff;}.cls-18{fill:#007ce6;}</style></defs><g><path class="cls-15" d="M296.18,45.39c0,1.41-.58,2.7-1.52,3.64-.93,.94-2.22,1.52-3.63,1.52h-110.14c-2.83,0-5.15-2.32-5.15-5.15,0-1.41,.58-2.7,1.52-3.64,.93-.94,2.22-1.52,3.63-1.52h5.21c2.06-4.78,6.8-8.12,12.33-8.12,3.72,0,7.08,1.52,9.52,3.96,3.24-5.5,9.23-9.2,16.08-9.2,1.88,0,3.7,.29,5.41,.8,3.58-6.74,10.67-11.33,18.83-11.33,9.81,0,18.05,6.62,20.54,15.63,1.81-.9,3.84-1.42,6.01-1.42,6.12,0,11.27,4.08,12.9,9.67h3.32c2.83,0,5.15,2.32,5.15,5.15Z"/><path class="cls-15" d="M142.75,25.88c0,1.04-.42,1.99-1.11,2.67-.68,.69-1.63,1.11-2.67,1.11H57.96c-2.08,0-3.78-1.7-3.78-3.79,0-1.04,.42-1.99,1.11-2.67,.68-.69,1.63-1.11,2.67-1.11h3.83c1.51-3.51,5-5.97,9.07-5.97,2.74,0,5.21,1.11,7,2.91,2.39-4.05,6.79-6.77,11.83-6.77,1.39,0,2.72,.21,3.98,.59,2.64-4.96,7.84-8.33,13.85-8.33,7.21,0,13.28,4.87,15.11,11.49,1.33-.66,2.83-1.04,4.42-1.04,4.5,0,8.29,3,9.48,7.11h2.44c2.08,0,3.78,1.7,3.78,3.79Z"/><path class="cls-15" d="M416.99,21.35c0,1.04-.42,1.99-1.11,2.67-.68,.69-1.63,1.11-2.67,1.11h-81c-2.08,0-3.78-1.7-3.78-3.79,0-1.04,.42-1.99,1.11-2.67,.68-.69,1.63-1.11,2.67-1.11h3.83c1.51-3.51,5-5.97,9.07-5.97,2.74,0,5.21,1.11,7,2.91,2.39-4.05,6.79-6.77,11.83-6.77,1.39,0,2.72,.21,3.98,.59,2.64-4.96,7.84-8.33,13.85-8.33,7.21,0,13.28,4.87,15.11,11.49,1.33-.66,2.83-1.04,4.42-1.04,4.5,0,8.29,3,9.48,7.11h2.44c2.08,0,3.78,1.7,3.78,3.79Z"/><path class="cls-15" d="M432.95,189.47c-1.36,.27-2.69,.73-3.96,1.37l-4.2-4.67-5.11,4.61,4.03,4.47c-.93,1.22-1.66,2.56-2.18,3.96l-7.02-.36-.36,6.87,6.48,.34c.18,1.93,.71,3.82,1.61,5.59l-4.67,4.21,4.61,5.11,4.47-4.03c1.46,1.11,3.07,1.92,4.76,2.45l-.3,5.83,6.87,.36,.29-5.63c2.02-.29,4-.99,5.81-2.1l4.02,4.47,5.11-4.61-4.21-4.67c.77-1.19,1.36-2.47,1.78-3.79l6.64,.35,.36-6.87-6.44-.33c-.29-2.02-.99-4-2.1-5.81l4.47-4.02-4.61-5.11-4.67,4.2c-1.43-.93-2.98-1.61-4.59-2.01l.34-6.44-6.87-.36-.34,6.64Zm7.75,10.94c2.33,2.58,2.12,6.58-.46,8.91-2.58,2.33-6.58,2.12-8.91-.46-2.33-2.58-2.12-6.58,.46-8.91,2.58-2.33,6.58-2.12,8.91,.46Z"/><path class="cls-15" d="M48.78,103.96c-1.36,.27-2.69,.73-3.96,1.37l-4.2-4.67-5.11,4.61,4.03,4.47c-.93,1.22-1.66,2.56-2.18,3.96l-7.02-.36-.36,6.87,6.48,.34c.18,1.93,.71,3.82,1.61,5.59l-4.67,4.21,4.61,5.11,4.47-4.03c1.46,1.11,3.07,1.92,4.76,2.45l-.3,5.83,6.87,.36,.29-5.63c2.02-.29,4-.99,5.81-2.1l4.02,4.47,5.11-4.61-4.21-4.67c.77-1.19,1.36-2.47,1.78-3.79l6.64,.35,.36-6.87-6.44-.33c-.29-2.02-.99-4-2.1-5.81l4.47-4.02-4.61-5.11-4.67,4.2c-1.43-.93-2.98-1.61-4.59-2.02l.34-6.44-6.87-.36-.34,6.64Zm7.75,10.94c2.33,2.58,2.12,6.58-.46,8.91-2.58,2.33-6.58,2.12-8.91-.46-2.33-2.58-2.12-6.58,.46-8.91,2.58-2.33,6.58-2.12,8.91,.46Z"/><path class="cls-15" d="M425.54,159.64c-.74,.15-1.47,.4-2.16,.75l-2.3-2.55-2.79,2.52,2.2,2.44c-.51,.67-.91,1.4-1.19,2.16l-3.84-.2-.2,3.76,3.54,.18c.1,1.05,.39,2.09,.88,3.06l-2.55,2.3,2.52,2.79,2.44-2.2c.8,.61,1.68,1.05,2.6,1.34l-.17,3.18,3.76,.19,.16-3.08c1.11-.16,2.19-.54,3.17-1.15l2.2,2.44,2.79-2.52-2.3-2.55c.42-.65,.75-1.35,.97-2.07l3.63,.19,.2-3.76-3.52-.18c-.16-1.11-.54-2.19-1.15-3.17l2.44-2.2-2.52-2.79-2.55,2.3c-.78-.51-1.63-.88-2.51-1.1l.18-3.52-3.76-.2-.19,3.63Zm4.23,5.98c1.27,1.41,1.16,3.6-.25,4.87-1.41,1.27-3.6,1.16-4.87-.25-1.27-1.41-1.16-3.6,.25-4.87,1.41-1.27,3.6-1.16,4.87,.25Z"/><path class="cls-15" d="M23.4,149.2c-.74,.15-1.47,.4-2.16,.75l-2.3-2.55-2.79,2.52,2.2,2.44c-.51,.67-.91,1.4-1.19,2.16l-3.84-.2-.2,3.76,3.54,.18c.1,1.05,.39,2.09,.88,3.06l-2.55,2.3,2.52,2.79,2.44-2.2c.8,.61,1.68,1.05,2.6,1.34l-.17,3.19,3.76,.19,.16-3.08c1.11-.16,2.19-.54,3.17-1.15l2.2,2.44,2.79-2.52-2.3-2.55c.42-.65,.75-1.35,.97-2.07l3.63,.19,.2-3.76-3.52-.18c-.16-1.11-.54-2.19-1.15-3.17l2.44-2.2-2.52-2.79-2.55,2.3c-.78-.51-1.63-.88-2.51-1.1l.18-3.52-3.76-.2-.19,3.63Zm4.23,5.98c1.27,1.41,1.16,3.6-.25,4.87-1.41,1.27-3.6,1.16-4.87-.25-1.27-1.41-1.16-3.6,.25-4.87,1.41-1.27,3.6-1.16,4.87,.25Z"/></g><ellipse class="cls-15" cx="219.38" cy="379.26" rx="219.38" ry="16.26"/><g><g><path class="cls-18" d="M365.97,159.14c0,3.26-2.66,5.92-5.92,5.92s-5.92-2.66-5.92-5.92,2.66-5.92,5.92-5.92,5.92,2.66,5.92,5.92Zm-1.86,0c0-2.24-1.82-4.06-4.06-4.06s-4.06,1.82-4.06,4.06,1.82,4.06,4.06,4.06,4.06-1.82,4.06-4.06Z"/><path class="cls-8" d="M392.04,141.86c0,3.26-2.66,5.92-5.92,5.92s-5.92-2.66-5.92-5.92,2.66-5.92,5.92-5.92,5.92,2.66,5.92,5.92Zm-1.86,0c0-2.24-1.82-4.06-4.06-4.06s-4.06,1.82-4.06,4.06,1.82,4.06,4.06,4.06,4.06-1.82,4.06-4.06Z"/><g><g><path class="cls-18" d="M388.74,119.52c-.51,0-.93,.42-.93,.93v4.1c0,.51,.42,.93,.93,.93s.93-.42,.93-.93v-4.1c0-.51-.42-.93-.93-.93Z"/><path class="cls-18" d="M388.74,112.35c-.51,0-.93,.42-.93,.93v4.1c0,.51,.42,.93,.93,.93s.93-.42,.93-.93v-4.1c0-.51-.42-.93-.93-.93Z"/></g><g><path class="cls-18" d="M394.49,117.98h-3.68c-.51,0-.93,.42-.93,.93s.42,.93,.93,.93h3.68c.51,0,.93-.42,.93-.93s-.42-.93-.93-.93Z"/><path class="cls-18" d="M386.67,117.98h-3.68c-.51,0-.93,.42-.93,.93s.42,.93,.93,.93h3.68c.51,0,.93-.42,.93-.93s-.42-.93-.93-.93Z"/></g></g><g><g><path class="cls-17" d="M356.67,134.98c-.51,0-.93,.42-.93,.93v4.1c0,.51,.42,.93,.93,.93s.93-.42,.93-.93v-4.1c0-.51-.42-.93-.93-.93Z"/><path class="cls-17" d="M356.67,127.81c-.51,0-.93,.42-.93,.93v4.09c0,.51,.42,.93,.93,.93s.93-.42,.93-.93v-4.09c0-.51-.42-.93-.93-.93Z"/></g><g><path class="cls-17" d="M362.42,133.44h-3.68c-.51,0-.93,.42-.93,.93s.42,.93,.93,.93h3.68c.51,0,.93-.42,.93-.93s-.42-.93-.93-.93Z"/><path class="cls-17" d="M354.6,133.44h-3.68c-.51,0-.93,.42-.93,.93s.42,.93,.93,.93h3.68c.51,0,.93-.42,.93-.93s-.42-.93-.93-.93Z"/></g></g></g><g><path class="cls-18" d="M99.51,56.46c-3.26,0-5.92-2.66-5.92-5.92s2.66-5.92,5.92-5.92,5.92,2.66,5.92,5.92-2.66,5.92-5.92,5.92Zm0-1.86c2.24,0,4.06-1.82,4.06-4.06s-1.82-4.06-4.06-4.06-4.06,1.82-4.06,4.06,1.82,4.06,4.06,4.06Z"/><path class="cls-8" d="M116.44,76.02c-3.26,0-5.92-2.66-5.92-5.92s2.66-5.92,5.92-5.92,5.92,2.66,5.92,5.92-2.66,5.92-5.92,5.92Zm0-1.86c2.24,0,4.06-1.82,4.06-4.06s-1.82-4.06-4.06-4.06-4.06,1.82-4.06,4.06,1.82,4.06,4.06,4.06Z"/><g><g><path class="cls-18" d="M131.5,46.24c0-.51-.42-.93-.93-.93h-4.1c-.51,0-.93,.42-.93,.93s.42,.93,.93,.93h4.1c.51,0,.93-.42,.93-.93Z"/><path class="cls-18" d="M138.67,46.24c0-.51-.42-.93-.93-.93h-4.09c-.51,0-.93,.42-.93,.93s.42,.93,.93,.93h4.09c.51,0,.93-.42,.93-.93Z"/></g><g><path class="cls-18" d="M133.04,51.99v-3.68c0-.51-.42-.93-.93-.93s-.93,.42-.93,.93v3.68c0,.51,.42,.93,.93,.93s.93-.42,.93-.93Z"/><path class="cls-18" d="M133.04,44.17v-3.68c0-.51-.42-.93-.93-.93s-.93,.42-.93,.93v3.68c0,.51,.42,.93,.93,.93s.93-.42,.93-.93Z"/></g></g><g><g><path class="cls-17" d="M85,80.84c0-.51-.42-.93-.93-.93h-4.09c-.51,0-.93,.42-.93,.93s.42,.93,.93,.93h4.09c.51,0,.93-.42,.93-.93Z"/><path class="cls-17" d="M92.17,80.84c0-.51-.42-.93-.93-.93h-4.09c-.51,0-.93,.42-.93,.93s.42,.93,.93,.93h4.09c.51,0,.93-.42,.93-.93Z"/></g><g><path class="cls-17" d="M86.54,86.59v-3.68c0-.51-.42-.93-.93-.93s-.93,.42-.93,.93v3.68c0,.51,.42,.93,.93,.93s.93-.42,.93-.93Z"/><path class="cls-17" d="M86.54,78.77v-3.68c0-.51-.42-.93-.93-.93s-.93,.42-.93,.93v3.68c0,.51,.42,.93,.93,.93s.93-.42,.93-.93Z"/></g></g></g></g><g><g><g><path class="cls-9" d="M306.16,102.43l2.36,1.4,1.25,.74,3.55,2.1s67.19-33.62,58.61-64.32c-2.64-9.45-16.36-11.92-30.21,14.7-12.84,24.67-35.57,45.37-35.57,45.37Z"/><path class="cls-12" d="M308.53,103.83l1.25,.74c14.11-9.55,26.09-21.87,33.92-30.89,9.3-10.71,14.91-19.22,14.97-19.31,.2-.3,.12-.71-.19-.91-.3-.2-.71-.12-.91,.19-.06,.09-5.64,8.54-14.88,19.18-7.87,9.06-19.95,21.48-34.16,30.99Z"/></g><g><path class="cls-15" d="M293.86,110.4l2.24,3.07,1.19,1.63,3.36,4.61s103.63-5.99,109.5-49.64c1.81-13.44-14.26-24.06-46.37,2.17-29.76,24.31-69.92,38.17-69.92,38.17Z"/><path class="cls-9" d="M296.1,113.47l1.19,1.63c23.12-4.42,45.05-13.51,59.91-20.69,17.64-8.52,29.42-16.25,29.54-16.33,.42-.28,.54-.84,.26-1.26-.28-.42-.84-.54-1.26-.26-.12,.08-11.81,7.76-29.35,16.23-14.93,7.21-37.05,16.37-60.28,20.69Z"/></g></g><g><g><path class="cls-9" d="M168.4,328.9l-2.37,1.39-1.26,.73-3.57,2.08s-66.99-34.02-58.22-64.68c2.7-9.44,16.43-11.82,30.12,14.89,12.69,24.75,35.3,45.59,35.3,45.59Z"/><path class="cls-12" d="M166.03,330.29l-1.26,.73c-14.05-9.63-25.96-22.02-33.73-31.09-9.23-10.77-14.8-19.31-14.85-19.4-.2-.31-.11-.71,.19-.91,.3-.2,.71-.11,.91,.19,.06,.09,5.58,8.57,14.76,19.27,7.81,9.11,19.82,21.6,33.97,31.2Z"/></g><g><path class="cls-15" d="M180.65,336.95l-2.25,3.06-1.2,1.62-3.39,4.59s-103.59-6.62-109.2-50.3c-1.73-13.45,14.41-23.97,46.35,2.45,29.61,24.49,69.68,38.59,69.68,38.59Z"/><path class="cls-9" d="M178.4,340.01l-1.2,1.62c-23.1-4.56-44.97-13.78-59.78-21.05-17.59-8.63-29.32-16.43-29.44-16.51-.42-.28-.53-.84-.25-1.26,.28-.42,.84-.53,1.26-.25,.12,.08,11.76,7.83,29.26,16.4,14.89,7.3,36.95,16.59,60.15,21.05Z"/></g></g><g><path class="cls-9" d="M307.34,286.32c13.1-16.86,25.78-35.24,32.75-48.4,9.1-17.19,12.75-30.98,10.84-40.97-.13-.66-.77-1.1-1.43-.97-.66,.13-1.1,.77-.97,1.43,3.33,17.46-11.87,48.05-43.98,88.53l2.78,.38Z"/><path class="cls-15" d="M346.93,221.92s8.47,5.69,17.9-9.58c0,0-15.43-5.04-17.9,9.58Z"/><path class="cls-15" d="M342.48,230.04s6.16-8.14-8.57-18.4c0,0-5.89,15.13,8.57,18.4Z"/><path class="cls-15" d="M350.08,204.82s8.52-5.62-1.95-20.21c0,0-10.6,12.3,1.95,20.21Z"/><path class="cls-15" d="M334.02,246.67s6.04,8.22,20.08-2.97c0,0-12.82-9.96-20.08,2.97Z"/><path class="cls-15" d="M328.23,254.27s7.47-6.95-5.26-19.61c0,0-8.42,13.88,5.26,19.61Z"/><path class="cls-15" d="M321.34,265.45s5.89,8.34,20.13-2.58c0,0-12.63-10.2-20.13,2.58Z"/></g><g><path class="cls-9" d="M161.85,181.3c-17.33-12.46-34.69-26.51-45.1-37.16-13.59-13.92-20.99-26.11-21.99-36.23-.07-.67,.42-1.27,1.1-1.33,.67-.07,1.27,.42,1.33,1.1,1.74,17.69,24.97,42.73,67.22,72.47l-2.56,1.15Z"/><path class="cls-15" d="M105.67,130.73s-6.51,7.86-19.88-4.13c0,0,13.38-9.2,19.88,4.13Z"/><path class="cls-15" d="M112.24,137.26s-8.21-6.06,3.02-20.07c0,0,9.93,12.84-3.02,20.07Z"/><path class="cls-15" d="M97.81,115.22s-9.76-2.98-3.85-19.93c0,0,13.64,8.8,3.85,19.93Z"/><path class="cls-15" d="M125.05,150.82s-3.47,9.6-20.1,2.83c0,0,9.48-13.18,20.1-2.83Z"/><path class="cls-15" d="M132.75,156.47s-9.13-4.55-.5-20.29c0,0,12,10.93,.5,20.29Z"/><path class="cls-15" d="M142.53,165.25s-3.29,9.66-20.04,3.22c0,0,9.23-13.36,20.04-3.22Z"/></g></g><g><g><path class="cls-6" d="M327.3,76.75V362.08c0,8.94-7.25,16.19-16.19,16.19H169.02c-4.49,0-8.56-1.83-11.49-4.78-2.91-2.93-4.7-6.96-4.7-11.41V76.75c0-8.94,7.25-16.19,16.19-16.19h142.09c2.64,0,5.14,.63,7.35,1.76,5.25,2.68,8.85,8.13,8.85,14.43Z"/><path class="cls-7" d="M321.27,76.75V362.08c0,8.94-7.25,16.19-16.19,16.19H162.99c-4.49,0-8.56-1.83-11.49-4.78-2.91-2.93-4.7-6.96-4.7-11.41V76.75c0-8.94,7.25-16.19,16.19-16.19h142.09c2.64,0,5.14,.63,7.35,1.76,5.25,2.68,8.85,8.13,8.85,14.43Z"/><path class="cls-7" d="M324.34,130.73h2.24c2.09,0,3.78-1.69,3.78-3.78v-18.2c0-2.09-1.69-3.78-3.78-3.78h-2.24v25.77Z"/><path class="cls-7" d="M146.79,130.73h-1.76c-1.64,0-2.97-1.33-2.97-2.97v-19.84c0-1.64,1.33-2.97,2.96-2.97h1.76v25.77Z"/><path class="cls-7" d="M146.79,164.54h-1.76c-1.64,0-2.97-1.33-2.97-2.97v-19.84c0-1.64,1.33-2.97,2.97-2.97h1.76v25.77Z"/><path class="cls-2" d="M313.19,75.77V363.06c0,3.95-3.2,7.13-7.13,7.13H162.01c-2.95,0-5.48-1.78-6.57-4.34-.36-.86-.57-1.8-.57-2.79V75.77c0-3.94,3.19-7.13,7.13-7.13h144.05c.47,0,.93,.04,1.37,.13,.5,.1,.98,.24,1.44,.44,2.2,.95,3.83,2.97,4.23,5.39,.07,.38,.1,.77,.1,1.17Z"/><g><path class="cls-18" d="M277.48,317.35v25.78c0,1.75-1.53,3.16-3.42,3.16h-76.29c-1.89,0-3.42-1.42-3.42-3.16v-25.78c0-1.75,1.53-3.16,3.42-3.16h76.29c1.89,0,3.42,1.42,3.42,3.16Z"/><g><text class="cls-10" transform="translate(211.17 338.29)"><tspan class="cls-11" x="0" y="0">PA</tspan><tspan class="cls-1" x="33.89" y="0">Y</tspan></text><text class="cls-4" transform="translate(209.65 338.29)"><tspan class="cls-11" x="0" y="0">PA</tspan><tspan class="cls-1" x="33.89" y="0">Y</tspan></text></g></g></g><rect class="cls-13" x="155.33" y="157.25" width="72.07" height="127.53"/><g><path class="cls-7" d="M249.87,147.32v132.52c0,6.12-4,11.34-9.52,13.19-1.38,.46-2.85,.71-4.38,.71-7.65,0-13.9-6.25-13.9-13.9V147.32c0-7.65,6.25-13.9,13.9-13.9,1.53,0,3,.25,4.38,.71,2.07,.69,3.93,1.86,5.44,3.37,2.52,2.52,4.08,5.99,4.08,9.82Z"/><path class="cls-6" d="M249.87,147.32v132.52c0,6.12-4,11.34-9.52,13.19-5.52-1.84-9.52-7.07-9.52-13.19V147.32c0-6.12,4-11.34,9.52-13.19,2.07,.69,3.93,1.86,5.44,3.37,2.52,2.52,4.08,5.99,4.08,9.82Z"/></g><path class="cls-13" d="M313.19,75.77v29.54H154.87v-29.54c0-3.94,3.19-7.13,7.13-7.13h144.05c.47,0,.93,.04,1.37,.13,.5,.1,.98,.24,1.44,.44,2.2,.95,3.83,2.97,4.23,5.39,.07,.38,.1,.77,.1,1.17Z"/><g><g><path class="cls-18" d="M150.83,106.3l-.05,.05v9.88c0,4.1-1.65,7.81-4.34,10.5-2.69,2.69-6.4,4.35-10.5,4.35-7.64,0-13.93-5.77-14.75-13.19-.06-.54-.09-1.1-.09-1.66v-9.68l36.25-36.25c1.06-1.06,2.51-1.66,4.01-1.66h26.52l-37.05,37.67Z"/><path class="cls-14" d="M150.78,106.35v9.88c0,4.1-1.65,7.81-4.34,10.5-2.69,2.69-6.4,4.35-10.5,4.35-7.64,0-13.93-5.77-14.75-13.19l-.09-11.34,29.74-.25-.05,.05Z"/></g><g><path class="cls-18" d="M247.27,68.63l-37.09,37.09v10.5c0,4.1-1.66,7.81-4.35,10.5-2.69,2.69-6.4,4.35-10.5,4.35-8.2,0-14.85-6.65-14.85-14.85v-10.17s37.08-37.42,37.08-37.42h29.7Z"/><path class="cls-14" d="M210.18,105.81v10.42c0,4.1-1.66,7.81-4.35,10.5-2.69,2.69-6.4,4.35-10.5,4.35-8.2,0-14.85-6.65-14.85-14.85v-10.17s29.7-.24,29.7-.24Z"/></g><g><path class="cls-18" d="M270.45,105.31v10.92c0,4.1-1.65,7.81-4.34,10.5-2.69,2.69-6.4,4.35-10.5,4.35-8.2,0-15.75-6.65-15.75-14.85l.06-10.5,.16-.16,36.87-36.93h30.6l-37.1,36.68Z"/><path class="cls-14" d="M270.46,116.23c0,4.1-1.66,7.81-4.35,10.5-2.69,2.69-6.4,4.35-10.5,4.35-8.2,0-15.75-6.65-15.75-14.85l.06-10.5,.16-.16,30.37-.25v10.92Z"/></g><path class="cls-2" d="M300.15,105.07h0s0,11.16,0,11.16c0,4.1-1.66,7.81-4.35,10.5-2.68,2.69-6.4,4.35-10.5,4.35-8.2,0-14.85-6.65-14.85-14.85v-10.92l36.97-36.55c.5,.1,.98,.24,1.44,.44,2.2,.95,3.83,2.97,4.23,5.39,.07,.38,.1,.77,.1,1.17v16.49l-13.04,12.81Z"/><path class="cls-13" d="M300.15,116.23c0,4.1-1.66,7.81-4.35,10.5-2.69,2.69-6.4,4.35-10.5,4.35-8.2,0-14.85-6.65-14.85-14.85v-10.92l29.69-.24v11.16Z"/><g><path class="cls-2" d="M217.56,68.63l-37.09,37.42v10.17c0,4.1-1.66,7.81-4.35,10.5-2.69,2.69-6.4,4.35-10.5,4.35-8.2,0-14.85-6.65-14.85-14.85v-9.88l.05-.05,37.05-37.67h29.69Z"/><path class="cls-13" d="M180.47,106.06v10.17c0,4.1-1.66,7.81-4.35,10.5-2.69,2.69-6.4,4.35-10.5,4.35-8.2,0-14.85-6.65-14.85-14.85v-9.88l.05-.05,29.65-.24Z"/></g><g><path class="cls-2" d="M276.95,68.63l-37.09,37.09v10.5c0,4.1-1.66,7.81-4.35,10.5-2.69,2.69-6.4,4.35-10.5,4.35-8.2,0-14.85-6.65-14.85-14.85v-10.5l37.1-37.09h29.69Z"/><path class="cls-13" d="M240.02,105.56l-.16,.16v10.5c0,4.1-1.66,7.81-4.35,10.5-2.69,2.69-6.4,4.35-10.5,4.35-8.2,0-14.85-6.65-14.85-14.85v-10.42l29.86-.25Z"/></g></g></g><g><path class="cls-18" d="M244.05,158.84v109.67c0,4.93-4,8.93-8.93,8.93H48.86c-2.22,0-4.26-.82-5.82-2.16-1.9-1.64-3.11-4.07-3.11-6.77v-109.67c0-4.93,4-8.93,8.93-8.93H235.11c4.93,0,8.93,4,8.93,8.93Z"/><rect class="cls-6" x="39.93" y="172.46" width="204.11" height="24.31"/><rect class="cls-16" x="181.29" y="244.15" width="48.01" height="16.82" rx="4.24" ry="4.24"/><g><rect class="cls-16" x="51.78" y="216.43" width="15.6" height="9.17" rx="1.07" ry="1.07"/><rect class="cls-16" x="79.25" y="216.43" width="15.6" height="9.17" rx="1.07" ry="1.07"/><rect class="cls-16" x="106.72" y="216.43" width="15.6" height="9.17" rx="1.07" ry="1.07"/><rect class="cls-16" x="134.19" y="216.43" width="15.6" height="9.17" rx="1.07" ry="1.07"/><rect class="cls-16" x="161.66" y="216.43" width="15.6" height="9.17" rx="1.07" ry="1.07"/><rect class="cls-16" x="189.13" y="216.43" width="15.6" height="9.17" rx="1.07" ry="1.07"/><rect class="cls-16" x="216.61" y="216.43" width="15.6" height="9.17" rx="1.07" ry="1.07"/></g><rect class="cls-16" x="39.93" y="159.58" width="204.11" height="4.66"/><rect class="cls-16" x="51.78" y="235.89" width="27.47" height="27.47" rx="6.93" ry="6.93"/><rect class="cls-16" x="85.8" y="248.77" width="88.93" height="7.57" rx="2.38" ry="2.38"/><path class="cls-5" d="M168.42,149.91l-125.38,125.38c-1.9-1.64-3.11-4.07-3.11-6.77v-38.48l80.13-80.13h48.36Z"/><polygon class="cls-5" points="234.73 149.91 107.2 277.44 83.54 277.44 211.07 149.91 234.73 149.91"/></g><g><path class="cls-8" d="M396.19,380.94h-18.1c-2.46,0-4.64-2.79-5.4-6.91l-7.68-41.57c-.31-1.7,.36-3.47,1.37-3.61,13.97-1.91,27.81-1.91,41.51,0,1.01,.14,1.68,1.91,1.37,3.61l-7.68,41.58c-.76,4.12-2.94,6.91-5.4,6.91Z"/><ellipse class="cls-7" cx="387.25" cy="330.94" rx="19.85" ry="2.22"/><path class="cls-18" d="M421.54,275.69c-10.87-2.86-27.48,19.7-32.53,41.7v-32.05c2.54-4.5,7.37-11.26,16.15-18.41,13.65-11.12,26.22-25.39,15.33-28.25-10.21-2.69-25.47,17.04-31.47,37.67v-41.16c1.76-2.73,4.64-6.31,9.25-10.06,8.6-7.01,16.52-16,9.66-17.81-5.96-1.57-14.65,8.98-18.91,20.87v-13.34c.7-4.13,1.7-10.02,4.43-16.05,6.33-13.96,9.75-28.35,1.4-27.28-8.35,1.07-13.76,25.94-9.2,45.03v6.87c-3.08-13.97-13.67-28.44-20.58-26.62-6.86,1.81,1.06,10.8,9.66,17.81,6.55,5.33,9.61,10.33,10.92,13.01v32.43c-4.95-22.11-21.68-44.93-32.61-42.05-10.89,2.87,1.68,17.14,15.33,28.25,10.32,8.4,15.19,16.27,17.28,20.56v38.89c-5.29-21.71-21.59-43.61-32.31-40.79-10.89,2.87-1.55,13.3,13.79,25.91,10.43,8.57,16.01,17.62,18.52,22.53v18.32c1.22,.34,2.36,.34,3.37,0v-7.29c2.13-4.32,7.01-12.1,17.2-20.4,13.65-11.12,26.22-25.39,15.33-28.25Z"/></g><g><g><g><g><path class="cls-16" d="M99.35,373.98s0,.07,0,.11c0,1.37-.73,2.68-2.07,3.91-.33,.3-.69,.59-1.09,.88-1.12,.81-2.51,1.57-4.14,2.28-.35,.15-.72,.3-1.09,.45-1.26,.5-2.65,.96-4.14,1.39-.36,.1-.72,.21-1.09,.3-1.31,.35-2.69,.67-4.14,.97-.36,.07-.72,.15-1.09,.21-1.33,.25-2.71,.48-4.14,.68-.36,.05-.73,.1-1.09,.15-1.34,.17-2.72,.33-4.14,.46-.36,.03-.73,.06-1.09,.09-1.35,.11-2.73,.2-4.14,.27-.36,.02-.73,.03-1.09,.05-1.36,.05-2.74,.08-4.14,.09-.24,0-.49,0-.73,0-.12,0-.24,0-.36,0-1.4,0-2.78-.03-4.14-.08-.37-.01-.73-.03-1.09-.04-1.03-.05-2.06-.1-3.07-.17-.36-.03-.72-.05-1.07-.08-.37-.03-.73-.06-1.09-.09-1.41-.12-2.8-.27-4.14-.44-.37-.05-.73-.09-1.09-.15-.86-.12-1.7-.24-2.52-.38-.55-.09-1.09-.18-1.62-.28-.37-.07-.73-.14-1.09-.21-1.45-.29-2.83-.6-4.14-.94-.26-.07-.51-.14-.77-.21-.11-.03-.22-.06-.32-.09-.59-.17-1.17-.34-1.73-.52-.85-.27-1.65-.55-2.41-.84-.37-.14-.74-.29-1.09-.44-1.4-.58-2.63-1.21-3.67-1.87-.16-.1-.32-.2-.47-.31-.19-.13-.37-.26-.55-.39-.19-.14-.37-.29-.55-.43-1.58-1.32-2.44-2.74-2.44-4.23,0-.1,0-.21,.01-.31v-8.42s2.43,0,2.43,0h1.09s4.14,0,4.14,0h1.09s3.23,0,3.23,0h.91s1.09,0,1.09,0h4.14s1.09,0,1.09,0h4.14s1.09,0,1.09,0h4.14s1.09,0,1.09,0h4.14s1.09,0,1.09,0h4.14s1.09,0,1.09,0h4.14s1.09,0,1.09,0h4.14s1.09,0,1.09,0h4.14s1.09,0,1.09,0h4.14s1.09,0,1.09,0h4.14s1.09,0,1.09,0h4.14s1.09,0,1.09,0h4.14s1.09,0,1.09,0h2.06s.01,8.73,.01,8.73h0Z"/><g><path class="cls-18" d="M24.02,365.36v13.78c-.19-.13-.37-.26-.55-.39-.19-.14-.37-.29-.55-.43v-12.96h1.09Z"/><path class="cls-18" d="M29.25,365.35v16.4c-.37-.14-.74-.29-1.09-.44v-15.96h1.09Z"/><path class="cls-18" d="M34.49,365.34v18.06c-.26-.07-.51-.14-.77-.21-.11-.03-.22-.06-.32-.09v-17.76h1.09Z"/><path class="cls-18" d="M39.72,365.33v19.22c-.37-.07-.73-.14-1.09-.21v-19.01h1.09Z"/><path class="cls-18" d="M44.95,365.33v20.04c-.37-.05-.73-.09-1.09-.15v-19.89h1.09Z"/><path class="cls-18" d="M50.18,365.32v20.58c-.37-.03-.73-.06-1.09-.09v-20.49h1.09Z"/><path class="cls-18" d="M55.42,365.31v20.88c-.37-.01-.73-.03-1.09-.04v-20.84h1.09Z"/><path class="cls-18" d="M60.65,365.3v20.97c-.24,0-.49,0-.73,0-.12,0-.24,0-.36,0v-20.97h1.09Z"/><path class="cls-18" d="M65.88,365.3v20.84c-.36,.02-.73,.03-1.09,.05v-20.88h1.09Z"/><path class="cls-18" d="M71.12,365.29v20.49c-.36,.03-.73,.06-1.09,.09v-20.58h1.09Z"/><path class="cls-18" d="M76.35,365.28v19.89c-.36,.05-.73,.1-1.09,.15v-20.04h1.09Z"/><path class="cls-18" d="M81.58,365.27v19c-.36,.07-.72,.15-1.09,.21v-19.21h1.09Z"/><path class="cls-18" d="M86.81,365.26v17.74c-.36,.1-.72,.21-1.09,.3v-18.04h1.09Z"/><path class="cls-18" d="M92.05,365.26v15.9c-.35,.15-.72,.3-1.09,.45v-16.35h1.09Z"/><path class="cls-18" d="M97.28,365.25v12.75c-.33,.3-.69,.59-1.09,.88v-13.63h1.09Z"/></g></g><g><path class="cls-17" d="M99.34,365.35c0,6.18-17.65,11.2-39.42,11.2-2.97,0-5.87-.09-8.66-.27-3.5-.22-6.83-.58-9.91-1.05-2.75-.42-5.31-.93-7.62-1.51-.71-.18-1.39-.36-2.05-.56-2.9-.84-5.33-1.82-7.18-2.89-.36-.21-.7-.42-1.01-.64-1.93-1.32-2.99-2.77-2.99-4.28,0-.14,0-.28,.03-.42,.76-5.99,18.11-10.78,39.39-10.78,5.24,0,10.24,.29,14.81,.82,.88,.1,1.75,.21,2.6,.33,3.71,.52,7.09,1.2,10.03,2.01,.65,.18,1.27,.36,1.88,.55,2.15,.68,4.01,1.43,5.52,2.24,1.56,.84,2.77,1.74,3.54,2.68,.57,.69,.91,1.41,1,2.14,.02,.14,.03,.28,.03,.42Z"/><path class="cls-3" d="M98.31,362.8l-47.04,13.48c-3.5-.22-6.83-.58-9.91-1.05l53.41-15.12c1.56,.84,2.77,1.74,3.54,2.68Z"/><path class="cls-3" d="M77.33,355.31l-52.83,14.97c-.36-.21-.7-.42-1.01-.64l51.24-14.66c.88,.1,1.75,.21,2.6,.33Z"/><path class="cls-3" d="M89.24,357.87l-55.51,15.85c-.71-.18-1.39-.36-2.05-.56l55.68-15.85c.65,.18,1.27,.36,1.88,.55Z"/><path class="cls-18" d="M91.43,365.35c0,.14-.01,.27-.03,.41-.76,4.74-14.59,8.54-31.48,8.54s-30.72-3.79-31.48-8.54c-.02-.14-.03-.27-.03-.41,0-4.93,14.13-8.95,31.51-8.95s31.51,4.01,31.51,8.95Z"/><path class="cls-16" d="M91.4,365.76c-.76,4.74-14.59,8.54-31.48,8.54-.38,0-.75,0-1.13,0-3.77-.04-7.37-.26-10.69-.65-3.32-.38-6.37-.92-9.01-1.59-.67-.17-1.32-.34-1.94-.53-2.82-.84-5.08-1.83-6.59-2.94-.36-.26-.69-.53-.96-.81-.65-.65-1.04-1.33-1.16-2.02,.76-4.74,14.59-8.54,31.48-8.54,2.14,0,4.22,.06,6.25,.18,1.03,.06,2.04,.13,3.04,.22,4.06,.36,7.77,.94,10.95,1.7,.69,.16,1.35,.34,1.99,.52,2.48,.7,4.55,1.51,6.1,2.41,1.51,.88,2.53,1.83,2.96,2.84,.1,.22,.16,.45,.2,.67Z"/><path class="cls-5" d="M91.2,365.09l-32.4,9.2c-3.77-.04-7.37-.26-10.69-.65l40.13-11.4c1.51,.88,2.53,1.83,2.96,2.84Z"/><path class="cls-5" d="M69.21,357.62l-38.65,10.97c-.36-.26-.69-.53-.96-.81l36.57-10.38c1.03,.06,2.04,.13,3.04,.22Z"/><path class="cls-5" d="M82.14,359.84l-43.05,12.23c-.67-.17-1.32-.34-1.94-.53l43-12.21c.69,.16,1.35,.34,1.99,.52Z"/><g><path class="cls-18" d="M64.3,370.43v1.49h-6.65v-1.42c-4.72-.08-9.29-.44-12.12-.94l3.58-2.3c3.11,.52,7.26,.86,10.89,.86,3.16,0,4.29-.19,4.29-.51,0-1.18-18.25-.23-18.25-3.72,0-1.51,3.87-2.79,11.6-3.09v-1.46h6.65v1.43c3.49,.09,6.89,.35,9.57,.78l-3.35,2.29c-3.25-.47-6.32-.7-9.2-.7-3.25,0-4.29,.27-4.29,.59,0,1.13,18.25,.19,18.25,3.64,0,1.45-3.68,2.71-10.99,3.07Z"/><path class="cls-17" d="M64.11,369.93v1.49h-6.65v-1.42c-4.72-.08-9.29-.44-12.12-.94l3.58-2.3c3.11,.52,7.26,.86,10.89,.86,3.16,0,4.29-.19,4.29-.51,0-1.18-18.25-.23-18.25-3.72,0-1.51,3.87-2.79,11.6-3.09v-1.46h6.65v1.43c3.49,.09,6.89,.35,9.57,.78l-3.35,2.29c-3.25-.47-6.32-.7-9.2-.7-3.25,0-4.29,.27-4.29,.59,0,1.13,18.25,.19,18.25,3.64,0,1.45-3.68,2.71-10.99,3.07Z"/></g></g></g><g><g><path class="cls-16" d="M101.83,360.17s0,.07,0,.11c0,1.37-.73,2.68-2.07,3.91-.33,.3-.69,.59-1.09,.88-1.12,.81-2.51,1.57-4.14,2.27-.35,.15-.72,.3-1.09,.45-1.26,.5-2.65,.96-4.14,1.39-.36,.1-.72,.21-1.09,.3-1.31,.35-2.69,.67-4.14,.97-.36,.07-.72,.14-1.09,.21-1.33,.25-2.71,.48-4.14,.68-.36,.05-.73,.1-1.09,.15-1.34,.17-2.72,.33-4.14,.46-.36,.03-.73,.06-1.09,.09-1.35,.11-2.73,.2-4.14,.27-.36,.02-.73,.03-1.09,.05-1.36,.05-2.74,.08-4.14,.09-.24,0-.49,0-.73,0-.12,0-.24,0-.36,0-1.4,0-2.78-.03-4.14-.08-.37-.01-.73-.03-1.09-.04-1.04-.05-2.06-.1-3.07-.17-.36-.02-.72-.05-1.07-.08-.37-.03-.73-.06-1.09-.09-1.41-.12-2.8-.27-4.14-.44-.37-.05-.73-.09-1.09-.15-.86-.12-1.7-.24-2.52-.38-.55-.09-1.09-.19-1.62-.28-.37-.07-.73-.14-1.09-.21-1.45-.29-2.83-.6-4.14-.94-.26-.07-.51-.14-.77-.21-.11-.03-.22-.06-.32-.09-.59-.17-1.17-.34-1.73-.51-.85-.27-1.65-.55-2.41-.84-.37-.14-.74-.29-1.09-.44-1.4-.59-2.63-1.21-3.67-1.87-.16-.1-.32-.2-.47-.31-.19-.13-.37-.26-.55-.39-.19-.14-.37-.29-.55-.43-1.58-1.32-2.44-2.74-2.44-4.23,0-.1,0-.21,.01-.31v-8.42s2.43,0,2.43,0h1.09s4.14,0,4.14,0h1.09s3.23,0,3.23,0h.91s1.09,0,1.09,0h4.14s1.09,0,1.09,0h4.14s1.09,0,1.09,0h4.14s1.09,0,1.09,0h4.14s1.09,0,1.09,0h4.14s1.09,0,1.09,0h4.14s1.09,0,1.09,0h4.14s1.09,0,1.09,0h4.14s1.09,0,1.09,0h4.14s1.09,0,1.09,0h4.14s1.09,0,1.09,0h4.14s1.09,0,1.09,0h4.14s1.09,0,1.09,0h2.06s.01,8.73,.01,8.73h0Z"/><g><path class="cls-18" d="M26.5,351.55v13.78c-.19-.13-.37-.26-.55-.39-.19-.14-.37-.29-.55-.43v-12.96h1.09Z"/><path class="cls-18" d="M31.73,351.54v16.4c-.37-.14-.74-.29-1.09-.44v-15.96h1.09Z"/><path class="cls-18" d="M36.96,351.53v18.06c-.26-.07-.51-.14-.77-.21-.11-.03-.22-.06-.32-.09v-17.76h1.09Z"/><path class="cls-18" d="M42.2,351.52v19.22c-.37-.07-.73-.14-1.09-.21v-19.01h1.09Z"/><path class="cls-18" d="M47.43,351.52v20.04c-.37-.05-.73-.09-1.09-.15v-19.89h1.09Z"/><path class="cls-18" d="M52.66,351.51v20.58c-.37-.03-.73-.06-1.09-.09v-20.49h1.09Z"/><path class="cls-18" d="M57.89,351.5v20.88c-.37-.01-.73-.03-1.09-.04v-20.84h1.09Z"/><path class="cls-18" d="M63.13,351.49v20.97c-.24,0-.49,0-.73,0-.12,0-.24,0-.36,0v-20.97h1.09Z"/><path class="cls-18" d="M68.36,351.49v20.84c-.36,.02-.73,.03-1.09,.05v-20.88h1.09Z"/><path class="cls-18" d="M73.59,351.48v20.49c-.36,.03-.73,.06-1.09,.09v-20.58h1.09Z"/><path class="cls-18" d="M78.83,351.47v19.89c-.36,.05-.73,.1-1.09,.15v-20.04h1.09Z"/><path class="cls-18" d="M84.06,351.46v19c-.36,.07-.72,.14-1.09,.21v-19.21h1.09Z"/><path class="cls-18" d="M89.29,351.45v17.74c-.36,.1-.72,.21-1.09,.3v-18.04h1.09Z"/><path class="cls-18" d="M94.52,351.45v15.9c-.35,.15-.72,.3-1.09,.45v-16.35h1.09Z"/><path class="cls-18" d="M99.76,351.44v12.75c-.33,.3-.69,.59-1.09,.88v-13.63h1.09Z"/></g></g><g><path class="cls-17" d="M101.82,351.54c0,6.18-17.65,11.2-39.42,11.2-2.97,0-5.87-.09-8.66-.27-3.5-.22-6.83-.58-9.91-1.05-2.75-.42-5.31-.93-7.62-1.51-.71-.18-1.39-.36-2.05-.56-2.9-.85-5.33-1.82-7.18-2.89-.36-.21-.7-.42-1.01-.64-1.93-1.32-2.99-2.77-2.99-4.28,0-.14,0-.28,.03-.42,.76-5.99,18.11-10.78,39.39-10.78,5.24,0,10.24,.29,14.81,.82,.88,.1,1.75,.21,2.6,.33,3.71,.52,7.1,1.2,10.03,2.01,.65,.18,1.27,.36,1.88,.55,2.15,.68,4.01,1.43,5.52,2.24,1.56,.84,2.77,1.74,3.54,2.68,.57,.69,.91,1.41,1,2.14,.02,.14,.03,.28,.03,.42Z"/><path class="cls-3" d="M100.78,348.99l-47.04,13.48c-3.5-.22-6.83-.58-9.91-1.05l53.41-15.12c1.56,.84,2.77,1.74,3.54,2.68Z"/><path class="cls-3" d="M79.8,341.49l-52.83,14.97c-.36-.21-.7-.42-1.01-.64l51.24-14.66c.88,.1,1.75,.21,2.6,.33Z"/><path class="cls-3" d="M91.72,344.06l-55.51,15.85c-.71-.18-1.39-.36-2.05-.56l55.68-15.85c.65,.18,1.27,.36,1.88,.55Z"/><path class="cls-18" d="M93.91,351.54c0,.14-.01,.27-.03,.41-.76,4.74-14.59,8.54-31.48,8.54s-30.72-3.79-31.48-8.54c-.02-.14-.03-.27-.03-.41,0-4.93,14.13-8.95,31.51-8.95s31.51,4.01,31.51,8.95Z"/><path class="cls-16" d="M93.88,351.95c-.76,4.74-14.59,8.54-31.48,8.54-.38,0-.75,0-1.13,0-3.77-.04-7.37-.26-10.69-.65-3.32-.38-6.37-.92-9.01-1.59-.67-.17-1.32-.34-1.94-.53-2.82-.84-5.08-1.83-6.59-2.94-.36-.26-.69-.53-.96-.81-.65-.65-1.04-1.33-1.16-2.02,.76-4.74,14.59-8.54,31.48-8.54,2.14,0,4.22,.06,6.25,.18,1.03,.06,2.04,.13,3.04,.22,4.06,.36,7.77,.94,10.95,1.7,.69,.16,1.35,.34,1.99,.52,2.48,.7,4.55,1.51,6.1,2.41,1.51,.88,2.53,1.83,2.96,2.84,.1,.22,.16,.45,.2,.67Z"/><path class="cls-5" d="M93.68,351.28l-32.4,9.2c-3.77-.04-7.37-.26-10.69-.65l40.13-11.4c1.51,.88,2.53,1.83,2.96,2.84Z"/><path class="cls-5" d="M71.68,343.81l-38.65,10.97c-.36-.26-.69-.53-.96-.81l36.57-10.39c1.03,.06,2.04,.13,3.04,.22Z"/><path class="cls-5" d="M84.62,346.03l-43.05,12.23c-.67-.17-1.32-.34-1.94-.53l43-12.21c.69,.16,1.35,.34,1.99,.52Z"/><g><path class="cls-18" d="M66.78,356.62v1.49h-6.65v-1.42c-4.72-.08-9.29-.44-12.12-.94l3.58-2.3c3.11,.52,7.26,.86,10.89,.86,3.16,0,4.29-.19,4.29-.51,0-1.18-18.25-.23-18.25-3.72,0-1.51,3.87-2.79,11.6-3.09v-1.46h6.65v1.43c3.49,.09,6.89,.35,9.57,.78l-3.35,2.29c-3.25-.47-6.32-.7-9.2-.7-3.25,0-4.29,.27-4.29,.59,0,1.13,18.25,.19,18.25,3.64,0,1.45-3.68,2.71-10.99,3.07Z"/><path class="cls-17" d="M66.59,356.12v1.49h-6.65v-1.42c-4.72-.08-9.29-.44-12.12-.94l3.58-2.3c3.11,.52,7.26,.86,10.89,.86,3.16,0,4.29-.19,4.29-.51,0-1.18-18.25-.23-18.25-3.72,0-1.51,3.87-2.79,11.6-3.09v-1.46h6.65v1.43c3.49,.09,6.89,.35,9.57,.78l-3.35,2.29c-3.25-.47-6.32-.7-9.2-.7-3.25,0-4.29,.27-4.29,.59,0,1.12,18.25,.19,18.25,3.64,0,1.45-3.68,2.71-10.99,3.07Z"/></g></g></g><g><g><path class="cls-16" d="M101.47,346.36s0,.07,0,.11c0,1.37-.73,2.68-2.07,3.91-.33,.3-.69,.59-1.09,.88-1.12,.81-2.51,1.57-4.14,2.28-.35,.15-.72,.3-1.09,.45-1.26,.5-2.65,.96-4.14,1.39-.36,.1-.72,.21-1.09,.3-1.31,.35-2.69,.67-4.14,.97-.36,.07-.72,.15-1.09,.21-1.33,.25-2.71,.48-4.14,.68-.36,.05-.73,.1-1.09,.15-1.34,.17-2.72,.33-4.14,.46-.36,.03-.73,.06-1.09,.09-1.35,.11-2.73,.2-4.14,.27-.36,.02-.73,.03-1.09,.05-1.36,.05-2.74,.08-4.14,.09-.24,0-.49,0-.73,0-.12,0-.24,0-.36,0-1.4,0-2.78-.03-4.14-.08-.37-.01-.73-.03-1.09-.04-1.04-.05-2.06-.1-3.07-.17-.36-.03-.72-.05-1.07-.08-.37-.03-.73-.06-1.09-.09-1.41-.12-2.8-.27-4.14-.44-.37-.05-.73-.09-1.09-.15-.86-.12-1.7-.24-2.52-.38-.55-.09-1.09-.18-1.62-.28-.37-.07-.73-.14-1.09-.21-1.45-.29-2.83-.6-4.14-.94-.26-.07-.51-.14-.77-.21-.11-.03-.22-.06-.32-.09-.59-.17-1.17-.34-1.73-.51-.85-.27-1.65-.55-2.41-.84-.37-.14-.74-.29-1.09-.44-1.4-.59-2.63-1.21-3.67-1.87-.16-.1-.32-.2-.47-.31-.19-.13-.37-.26-.55-.39-.19-.14-.37-.29-.55-.43-1.58-1.32-2.44-2.74-2.44-4.23,0-.1,0-.21,.01-.31v-8.42s2.43,0,2.43,0h1.09s4.14,0,4.14,0h1.09s3.23,0,3.23,0h.91s1.09,0,1.09,0h4.14s1.09,0,1.09,0h4.14s1.09,0,1.09,0h4.14s1.09,0,1.09,0h4.14s1.09,0,1.09,0h4.14s1.09,0,1.09,0h4.14s1.09,0,1.09,0h4.14s1.09,0,1.09,0h4.14s1.09,0,1.09,0h4.14s1.09,0,1.09,0h4.14s1.09,0,1.09,0h4.14s1.09,0,1.09,0h4.14s1.09,0,1.09,0h2.06s.01,8.73,.01,8.73h0Z"/><g><path class="cls-18" d="M26.14,337.74v13.78c-.19-.13-.37-.26-.55-.39-.19-.14-.37-.29-.55-.43v-12.96h1.09Z"/><path class="cls-18" d="M31.37,337.73v16.4c-.37-.14-.74-.29-1.09-.44v-15.96h1.09Z"/><path class="cls-18" d="M36.6,337.72v18.06c-.26-.07-.51-.14-.77-.21-.11-.03-.22-.06-.32-.09v-17.76h1.09Z"/><path class="cls-18" d="M41.84,337.71v19.22c-.37-.07-.73-.14-1.09-.21v-19.01h1.09Z"/><path class="cls-18" d="M47.07,337.71v20.04c-.37-.05-.73-.09-1.09-.15v-19.89h1.09Z"/><path class="cls-18" d="M52.3,337.7v20.58c-.37-.03-.73-.06-1.09-.09v-20.49h1.09Z"/><path class="cls-18" d="M57.53,337.69v20.88c-.37-.01-.73-.03-1.09-.04v-20.84h1.09Z"/><path class="cls-18" d="M62.77,337.68v20.97c-.24,0-.49,0-.73,0-.12,0-.24,0-.36,0v-20.97h1.09Z"/><path class="cls-18" d="M68,337.68v20.84c-.36,.02-.73,.03-1.09,.05v-20.88h1.09Z"/><path class="cls-18" d="M73.23,337.67v20.49c-.36,.03-.73,.06-1.09,.09v-20.58h1.09Z"/><path class="cls-18" d="M78.46,337.66v19.89c-.36,.05-.73,.1-1.09,.15v-20.04h1.09Z"/><path class="cls-18" d="M83.7,337.65v19c-.36,.07-.72,.15-1.09,.21v-19.21h1.09Z"/><path class="cls-18" d="M88.93,337.64v17.74c-.36,.1-.72,.21-1.09,.3v-18.04h1.09Z"/><path class="cls-18" d="M94.16,337.64v15.9c-.35,.15-.72,.3-1.09,.45v-16.35h1.09Z"/><path class="cls-18" d="M99.39,337.63v12.75c-.33,.3-.69,.59-1.09,.88v-13.63h1.09Z"/></g></g><g><path class="cls-17" d="M101.46,337.73c0,6.18-17.65,11.2-39.42,11.2-2.97,0-5.87-.09-8.66-.27-3.5-.22-6.83-.58-9.91-1.05-2.75-.42-5.31-.93-7.62-1.51-.71-.18-1.39-.36-2.05-.56-2.9-.85-5.33-1.82-7.18-2.89-.36-.21-.7-.42-1.01-.64-1.93-1.32-2.99-2.77-2.99-4.28,0-.14,0-.28,.03-.42,.76-5.99,18.11-10.78,39.39-10.78,5.24,0,10.24,.29,14.81,.82,.88,.1,1.75,.21,2.6,.33,3.71,.52,7.09,1.2,10.03,2.01,.65,.18,1.27,.36,1.88,.55,2.15,.68,4.01,1.43,5.52,2.24,1.56,.84,2.77,1.74,3.54,2.68,.57,.69,.91,1.41,1,2.14,.02,.14,.03,.28,.03,.42Z"/><path class="cls-3" d="M100.42,335.17l-47.04,13.48c-3.5-.22-6.83-.58-9.91-1.05l53.41-15.12c1.56,.84,2.77,1.74,3.54,2.68Z"/><path class="cls-3" d="M79.44,327.68l-52.83,14.97c-.36-.21-.7-.42-1.01-.64l51.24-14.66c.88,.1,1.75,.21,2.6,.33Z"/><path class="cls-3" d="M91.36,330.25l-55.51,15.85c-.71-.18-1.39-.36-2.05-.56l55.68-15.85c.65,.18,1.27,.36,1.88,.55Z"/><path class="cls-18" d="M93.55,337.73c0,.14-.01,.27-.03,.41-.76,4.74-14.59,8.54-31.48,8.54s-30.72-3.79-31.48-8.54c-.02-.14-.03-.27-.03-.41,0-4.93,14.13-8.95,31.51-8.95s31.51,4.01,31.51,8.95Z"/><path class="cls-16" d="M93.51,338.14c-.76,4.74-14.59,8.54-31.48,8.54-.38,0-.75,0-1.13,0-3.77-.04-7.37-.26-10.69-.65-3.32-.38-6.37-.92-9.01-1.59-.67-.17-1.32-.34-1.94-.53-2.82-.84-5.08-1.83-6.59-2.94-.36-.26-.69-.53-.96-.81-.65-.65-1.04-1.33-1.16-2.02,.76-4.74,14.59-8.54,31.48-8.54,2.14,0,4.22,.06,6.25,.18,1.03,.06,2.04,.13,3.04,.22,4.06,.36,7.77,.94,10.95,1.7,.69,.16,1.35,.34,1.99,.52,2.48,.7,4.55,1.51,6.1,2.41,1.51,.88,2.53,1.83,2.96,2.84,.1,.22,.16,.45,.2,.67Z"/><path class="cls-5" d="M93.32,337.47l-32.4,9.2c-3.77-.04-7.37-.26-10.69-.65l40.13-11.4c1.51,.88,2.53,1.83,2.96,2.84Z"/><path class="cls-5" d="M71.32,330l-38.65,10.97c-.36-.26-.69-.53-.96-.81l36.57-10.39c1.03,.06,2.04,.13,3.04,.22Z"/><path class="cls-5" d="M84.26,332.22l-43.05,12.23c-.67-.17-1.32-.34-1.94-.53l43-12.21c.69,.16,1.35,.34,1.99,.52Z"/><g><path class="cls-18" d="M66.42,342.81v1.49h-6.65v-1.42c-4.72-.08-9.29-.44-12.12-.94l3.58-2.3c3.11,.52,7.26,.86,10.89,.86,3.16,0,4.29-.19,4.29-.51,0-1.18-18.25-.23-18.25-3.72,0-1.51,3.87-2.79,11.6-3.09v-1.46h6.65v1.43c3.49,.09,6.89,.35,9.57,.78l-3.35,2.29c-3.25-.47-6.32-.7-9.2-.7-3.25,0-4.29,.27-4.29,.59,0,1.12,18.25,.19,18.25,3.64,0,1.45-3.68,2.71-10.99,3.07Z"/><path class="cls-17" d="M66.23,342.31v1.49h-6.65v-1.42c-4.72-.08-9.29-.44-12.12-.94l3.58-2.3c3.11,.52,7.26,.86,10.89,.86,3.16,0,4.29-.19,4.29-.51,0-1.18-18.25-.23-18.25-3.72,0-1.51,3.87-2.79,11.6-3.09v-1.46h6.65v1.43c3.49,.09,6.89,.35,9.57,.78l-3.35,2.29c-3.25-.47-6.32-.7-9.2-.7-3.25,0-4.29,.27-4.29,.59,0,1.12,18.25,.19,18.25,3.64,0,1.45-3.68,2.71-10.99,3.07Z"/></g></g></g><g><g><path class="cls-16" d="M99.5,334.01s0,.07,0,.11c0,1.37-.73,2.68-2.07,3.91-.33,.3-.69,.59-1.09,.88-1.12,.81-2.51,1.57-4.14,2.28-.35,.15-.72,.3-1.09,.45-1.26,.5-2.65,.96-4.14,1.39-.36,.1-.72,.21-1.09,.3-1.31,.35-2.69,.67-4.14,.97-.36,.07-.72,.15-1.09,.21-1.33,.25-2.71,.48-4.14,.68-.36,.05-.73,.1-1.09,.15-1.34,.17-2.72,.33-4.14,.46-.36,.03-.73,.06-1.09,.09-1.35,.11-2.73,.2-4.14,.27-.36,.02-.73,.03-1.09,.05-1.36,.05-2.74,.08-4.14,.09-.24,0-.49,0-.73,0-.12,0-.24,0-.36,0-1.4,0-2.78-.03-4.14-.08-.37-.01-.73-.03-1.09-.04-1.04-.05-2.06-.1-3.07-.17-.36-.02-.72-.05-1.07-.08-.37-.03-.73-.06-1.09-.09-1.41-.12-2.8-.27-4.14-.44-.37-.05-.73-.09-1.09-.15-.86-.12-1.7-.24-2.52-.38-.55-.09-1.09-.18-1.62-.28-.37-.07-.73-.14-1.09-.21-1.45-.29-2.83-.6-4.14-.94-.26-.07-.51-.14-.77-.21-.11-.03-.22-.06-.32-.09-.59-.17-1.17-.34-1.73-.51-.85-.27-1.65-.55-2.41-.84-.37-.14-.74-.29-1.09-.44-1.4-.58-2.63-1.21-3.67-1.87-.16-.1-.32-.2-.47-.31-.19-.13-.37-.26-.55-.39-.19-.14-.37-.29-.55-.43-1.58-1.32-2.44-2.74-2.44-4.23,0-.1,0-.21,.01-.31v-8.42s2.43,0,2.43,0h1.09s4.14,0,4.14,0h1.09s3.23,0,3.23,0h.91s1.09,0,1.09,0h4.14s1.09,0,1.09,0h4.14s1.09,0,1.09,0h4.14s1.09,0,1.09,0h4.14s1.09,0,1.09,0h4.14s1.09,0,1.09,0h4.14s1.09,0,1.09,0h4.14s1.09,0,1.09,0h4.14s1.09,0,1.09,0h4.14s1.09,0,1.09,0h4.14s1.09,0,1.09,0h4.14s1.09,0,1.09,0h4.14s1.09,0,1.09,0h2.06s.01,8.73,.01,8.73h0Z"/><g><path class="cls-18" d="M24.17,325.38v13.78c-.19-.13-.37-.26-.55-.39-.19-.14-.37-.29-.55-.43v-12.96h1.09Z"/><path class="cls-18" d="M29.41,325.38v16.4c-.37-.14-.74-.29-1.09-.44v-15.96h1.09Z"/><path class="cls-18" d="M34.64,325.37v18.06c-.26-.07-.51-.14-.77-.21-.11-.03-.22-.06-.32-.09v-17.76h1.09Z"/><path class="cls-18" d="M39.87,325.36v19.22c-.37-.07-.73-.14-1.09-.21v-19.01h1.09Z"/><path class="cls-18" d="M45.11,325.35v20.04c-.37-.05-.73-.09-1.09-.15v-19.89h1.09Z"/><path class="cls-18" d="M50.34,325.35v20.58c-.37-.03-.73-.06-1.09-.09v-20.49h1.09Z"/><path class="cls-18" d="M55.57,325.34v20.88c-.37-.01-.73-.03-1.09-.04v-20.84h1.09Z"/><path class="cls-18" d="M60.8,325.33v20.97c-.24,0-.49,0-.73,0-.12,0-.24,0-.36,0v-20.97h1.09Z"/><path class="cls-18" d="M66.04,325.32v20.84c-.36,.02-.73,.03-1.09,.05v-20.88h1.09Z"/><path class="cls-18" d="M71.27,325.32v20.49c-.36,.03-.73,.06-1.09,.09v-20.58h1.09Z"/><path class="cls-18" d="M76.5,325.31v19.89c-.36,.05-.73,.1-1.09,.15v-20.04h1.09Z"/><path class="cls-18" d="M81.73,325.3v19c-.36,.07-.72,.15-1.09,.21v-19.21h1.09Z"/><path class="cls-18" d="M86.97,325.29v17.74c-.36,.1-.72,.21-1.09,.3v-18.04h1.09Z"/><path class="cls-18" d="M92.2,325.28v15.9c-.35,.15-.72,.3-1.09,.45v-16.35h1.09Z"/><path class="cls-18" d="M97.43,325.28v12.75c-.33,.3-.69,.59-1.09,.88v-13.63h1.09Z"/></g></g><g><path class="cls-17" d="M99.5,325.38c0,6.18-17.65,11.2-39.42,11.2-2.97,0-5.87-.09-8.66-.27-3.5-.22-6.83-.58-9.91-1.05-2.75-.42-5.31-.93-7.62-1.51-.71-.18-1.39-.36-2.05-.56-2.9-.85-5.33-1.82-7.18-2.89-.36-.21-.7-.42-1.01-.64-1.93-1.32-2.99-2.77-2.99-4.28,0-.14,0-.28,.03-.42,.76-5.99,18.11-10.78,39.39-10.78,5.24,0,10.24,.29,14.81,.82,.88,.1,1.75,.21,2.6,.33,3.71,.52,7.09,1.2,10.03,2.01,.65,.18,1.27,.36,1.88,.55,2.15,.68,4.01,1.43,5.52,2.24,1.56,.84,2.77,1.74,3.54,2.68,.57,.69,.91,1.41,1,2.14,.02,.14,.03,.28,.03,.42Z"/><path class="cls-3" d="M98.46,322.82l-47.04,13.48c-3.5-.22-6.83-.58-9.91-1.05l53.41-15.12c1.56,.84,2.77,1.74,3.54,2.68Z"/><path class="cls-3" d="M77.48,315.33l-52.83,14.97c-.36-.21-.7-.42-1.01-.64l51.24-14.66c.88,.1,1.75,.21,2.6,.33Z"/><path class="cls-3" d="M89.39,317.9l-55.51,15.85c-.71-.18-1.39-.36-2.05-.56l55.68-15.85c.65,.18,1.27,.36,1.88,.55Z"/><path class="cls-18" d="M91.58,325.38c0,.14-.01,.27-.03,.41-.76,4.74-14.59,8.54-31.48,8.54s-30.72-3.79-31.48-8.54c-.02-.14-.03-.27-.03-.41,0-4.93,14.13-8.95,31.51-8.95s31.51,4.01,31.51,8.95Z"/><path class="cls-16" d="M91.55,325.79c-.76,4.74-14.59,8.54-31.48,8.54-.38,0-.75,0-1.13,0-3.77-.04-7.37-.26-10.69-.65-3.32-.38-6.37-.92-9.01-1.59-.67-.17-1.32-.34-1.94-.53-2.82-.84-5.08-1.83-6.59-2.94-.36-.26-.69-.53-.96-.81-.65-.65-1.04-1.33-1.16-2.02,.76-4.74,14.59-8.54,31.48-8.54,2.14,0,4.22,.06,6.25,.18,1.03,.06,2.04,.13,3.04,.22,4.06,.36,7.77,.94,10.95,1.7,.69,.16,1.35,.34,1.99,.52,2.47,.7,4.55,1.51,6.1,2.41,1.51,.88,2.53,1.83,2.96,2.84,.1,.22,.16,.45,.2,.67Z"/><path class="cls-5" d="M91.35,325.12l-32.4,9.2c-3.77-.04-7.37-.26-10.69-.65l40.13-11.4c1.51,.88,2.53,1.83,2.96,2.84Z"/><path class="cls-5" d="M69.36,317.65l-38.65,10.97c-.36-.26-.69-.53-.96-.81l36.57-10.39c1.03,.06,2.04,.13,3.04,.22Z"/><path class="cls-5" d="M82.29,319.86l-43.05,12.23c-.67-.17-1.32-.34-1.94-.53l43-12.21c.69,.16,1.35,.34,1.99,.52Z"/><g><path class="cls-18" d="M64.46,330.46v1.49h-6.65v-1.42c-4.72-.08-9.29-.44-12.12-.94l3.58-2.3c3.11,.52,7.26,.86,10.89,.86,3.16,0,4.29-.19,4.29-.51,0-1.18-18.25-.23-18.25-3.72,0-1.51,3.87-2.79,11.6-3.09v-1.46h6.65v1.43c3.49,.09,6.89,.35,9.57,.78l-3.35,2.29c-3.25-.47-6.32-.7-9.2-.7-3.25,0-4.29,.27-4.29,.59,0,1.13,18.25,.19,18.25,3.64,0,1.45-3.68,2.71-10.99,3.07Z"/><path class="cls-17" d="M64.26,329.96v1.49h-6.65v-1.42c-4.72-.08-9.29-.44-12.12-.94l3.58-2.3c3.11,.52,7.26,.86,10.89,.86,3.16,0,4.29-.19,4.29-.51,0-1.18-18.25-.23-18.25-3.72,0-1.51,3.87-2.79,11.6-3.09v-1.46h6.65v1.43c3.49,.09,6.89,.35,9.57,.78l-3.35,2.29c-3.25-.47-6.32-.7-9.2-.7-3.25,0-4.29,.27-4.29,.59,0,1.13,18.25,.19,18.25,3.64,0,1.45-3.68,2.71-10.99,3.07Z"/></g></g></g></g><g><g><g><path class="cls-16" d="M169.04,373.98s0,.07,0,.11c0,1.37-.73,2.68-2.07,3.91-.33,.3-.69,.59-1.09,.88-1.12,.81-2.51,1.57-4.14,2.28-.35,.15-.72,.3-1.09,.45-1.26,.5-2.65,.96-4.14,1.39-.36,.1-.72,.21-1.09,.3-1.31,.35-2.69,.67-4.14,.97-.36,.07-.72,.15-1.09,.21-1.33,.25-2.71,.48-4.14,.68-.36,.05-.73,.1-1.09,.15-1.34,.17-2.72,.33-4.14,.46-.36,.03-.73,.06-1.09,.09-1.35,.11-2.73,.2-4.14,.27-.36,.02-.73,.03-1.09,.05-1.36,.05-2.74,.08-4.14,.09-.24,0-.49,0-.73,0-.12,0-.24,0-.36,0-1.4,0-2.78-.03-4.14-.08-.37-.01-.73-.03-1.09-.04-1.03-.05-2.06-.1-3.07-.17-.36-.03-.72-.05-1.07-.08-.37-.03-.73-.06-1.09-.09-1.41-.12-2.8-.27-4.14-.44-.37-.05-.73-.09-1.09-.15-.86-.12-1.7-.24-2.52-.38-.55-.09-1.09-.18-1.62-.28-.37-.07-.73-.14-1.09-.21-1.45-.29-2.83-.6-4.14-.94-.26-.07-.51-.14-.77-.21-.11-.03-.22-.06-.32-.09-.59-.17-1.17-.34-1.73-.52-.85-.27-1.65-.55-2.41-.84-.37-.14-.74-.29-1.09-.44-1.4-.58-2.63-1.21-3.67-1.87-.16-.1-.32-.2-.47-.31-.19-.13-.37-.26-.55-.39-.19-.14-.37-.29-.55-.43-1.58-1.32-2.44-2.74-2.44-4.23,0-.1,0-.21,.01-.31v-8.42s2.43,0,2.43,0h1.09s4.14,0,4.14,0h1.09s3.23,0,3.23,0h.91s1.09,0,1.09,0h4.14s1.09,0,1.09,0h4.14s1.09,0,1.09,0h4.14s1.09,0,1.09,0h4.14s1.09,0,1.09,0h4.14s1.09,0,1.09,0h4.14s1.09,0,1.09,0h4.14s1.09,0,1.09,0h4.14s1.09,0,1.09,0h4.14s1.09,0,1.09,0h4.14s1.09,0,1.09,0h4.14s1.09,0,1.09,0h4.14s1.09,0,1.09,0h2.06s.01,8.73,.01,8.73h0Z"/><g><path class="cls-18" d="M93.71,365.36v13.78c-.19-.13-.37-.26-.55-.39-.19-.14-.37-.29-.55-.43v-12.96h1.09Z"/><path class="cls-18" d="M98.94,365.35v16.4c-.37-.14-.74-.29-1.09-.44v-15.96h1.09Z"/><path class="cls-18" d="M104.17,365.34v18.06c-.26-.07-.51-.14-.77-.21-.11-.03-.22-.06-.32-.09v-17.76h1.09Z"/><path class="cls-18" d="M109.41,365.33v19.22c-.37-.07-.73-.14-1.09-.21v-19.01h1.09Z"/><path class="cls-18" d="M114.64,365.33v20.04c-.37-.05-.73-.09-1.09-.15v-19.89h1.09Z"/><path class="cls-18" d="M119.87,365.32v20.58c-.37-.03-.73-.06-1.09-.09v-20.49h1.09Z"/><path class="cls-18" d="M125.1,365.31v20.88c-.37-.01-.73-.03-1.09-.04v-20.84h1.09Z"/><path class="cls-18" d="M130.34,365.3v20.97c-.24,0-.49,0-.73,0-.12,0-.24,0-.36,0v-20.97h1.09Z"/><path class="cls-18" d="M135.57,365.3v20.84c-.36,.02-.73,.03-1.09,.05v-20.88h1.09Z"/><path class="cls-18" d="M140.8,365.29v20.49c-.36,.03-.73,.06-1.09,.09v-20.58h1.09Z"/><path class="cls-18" d="M146.03,365.28v19.89c-.36,.05-.73,.1-1.09,.15v-20.04h1.09Z"/><path class="cls-18" d="M151.27,365.27v19c-.36,.07-.72,.15-1.09,.21v-19.21h1.09Z"/><path class="cls-18" d="M156.5,365.26v17.74c-.36,.1-.72,.21-1.09,.3v-18.04h1.09Z"/><path class="cls-18" d="M161.73,365.26v15.9c-.35,.15-.72,.3-1.09,.45v-16.35h1.09Z"/><path class="cls-18" d="M166.96,365.25v12.75c-.33,.3-.69,.59-1.09,.88v-13.63h1.09Z"/></g></g><g><path class="cls-17" d="M169.03,365.35c0,6.18-17.65,11.2-39.42,11.2-2.97,0-5.87-.09-8.66-.27-3.5-.22-6.83-.58-9.91-1.05-2.75-.42-5.31-.93-7.62-1.51-.71-.18-1.39-.36-2.05-.56-2.9-.84-5.33-1.82-7.18-2.89-.36-.21-.7-.42-1.01-.64-1.93-1.32-2.99-2.77-2.99-4.28,0-.14,0-.28,.03-.42,.76-5.99,18.11-10.78,39.39-10.78,5.24,0,10.24,.29,14.81,.82,.88,.1,1.75,.21,2.6,.33,3.71,.52,7.09,1.2,10.03,2.01,.65,.18,1.27,.36,1.88,.55,2.15,.68,4.01,1.43,5.52,2.24,1.56,.84,2.77,1.74,3.54,2.68,.57,.69,.91,1.41,1,2.14,.02,.14,.03,.28,.03,.42Z"/><path class="cls-3" d="M167.99,362.8l-47.04,13.48c-3.5-.22-6.83-.58-9.91-1.05l53.41-15.12c1.56,.84,2.77,1.74,3.54,2.68Z"/><path class="cls-3" d="M147.01,355.31l-52.83,14.97c-.36-.21-.7-.42-1.01-.64l51.24-14.66c.88,.1,1.75,.21,2.6,.33Z"/><path class="cls-3" d="M158.93,357.87l-55.51,15.85c-.71-.18-1.39-.36-2.05-.56l55.68-15.85c.65,.18,1.27,.36,1.88,.55Z"/><path class="cls-18" d="M161.12,365.35c0,.14-.01,.27-.03,.41-.76,4.74-14.59,8.54-31.48,8.54s-30.72-3.79-31.48-8.54c-.02-.14-.03-.27-.03-.41,0-4.93,14.13-8.95,31.51-8.95s31.51,4.01,31.51,8.95Z"/><path class="cls-16" d="M161.08,365.76c-.76,4.74-14.59,8.54-31.48,8.54-.38,0-.75,0-1.13,0-3.77-.04-7.37-.26-10.69-.65-3.32-.38-6.37-.92-9.01-1.59-.67-.17-1.32-.34-1.94-.53-2.82-.84-5.08-1.83-6.59-2.94-.36-.26-.69-.53-.96-.81-.65-.65-1.04-1.33-1.16-2.02,.76-4.74,14.59-8.54,31.48-8.54,2.14,0,4.22,.06,6.25,.18,1.03,.06,2.04,.13,3.04,.22,4.06,.36,7.77,.94,10.95,1.7,.69,.16,1.35,.34,1.99,.52,2.48,.7,4.55,1.51,6.1,2.41,1.51,.88,2.53,1.83,2.96,2.84,.1,.22,.16,.45,.2,.67Z"/><path class="cls-5" d="M160.89,365.09l-32.4,9.2c-3.77-.04-7.37-.26-10.69-.65l40.13-11.4c1.51,.88,2.53,1.83,2.96,2.84Z"/><path class="cls-5" d="M138.89,357.62l-38.65,10.97c-.36-.26-.69-.53-.96-.81l36.57-10.38c1.03,.06,2.04,.13,3.04,.22Z"/><path class="cls-5" d="M151.83,359.84l-43.05,12.23c-.67-.17-1.32-.34-1.94-.53l43-12.21c.69,.16,1.35,.34,1.99,.52Z"/><g><path class="cls-18" d="M133.99,370.43v1.49h-6.65v-1.42c-4.72-.08-9.29-.44-12.12-.94l3.58-2.3c3.11,.52,7.26,.86,10.89,.86,3.16,0,4.29-.19,4.29-.51,0-1.18-18.25-.23-18.25-3.72,0-1.51,3.87-2.79,11.6-3.09v-1.46h6.65v1.43c3.49,.09,6.89,.35,9.57,.78l-3.35,2.29c-3.25-.47-6.32-.7-9.2-.7-3.25,0-4.29,.27-4.29,.59,0,1.13,18.25,.19,18.25,3.64,0,1.45-3.68,2.71-10.99,3.07Z"/><path class="cls-17" d="M133.8,369.93v1.49h-6.65v-1.42c-4.72-.08-9.29-.44-12.12-.94l3.58-2.3c3.11,.52,7.26,.86,10.89,.86,3.16,0,4.29-.19,4.29-.51,0-1.18-18.25-.23-18.25-3.72,0-1.51,3.87-2.79,11.6-3.09v-1.46h6.65v1.43c3.49,.09,6.89,.35,9.57,.78l-3.35,2.29c-3.25-.47-6.32-.7-9.2-.7-3.25,0-4.29,.27-4.29,.59,0,1.13,18.25,.19,18.25,3.64,0,1.45-3.68,2.71-10.99,3.07Z"/></g></g></g><g><g><path class="cls-16" d="M171.51,360.17s0,.07,0,.11c0,1.37-.73,2.68-2.07,3.91-.33,.3-.69,.59-1.09,.88-1.12,.81-2.51,1.57-4.14,2.27-.35,.15-.72,.3-1.09,.45-1.26,.5-2.65,.96-4.14,1.39-.36,.1-.72,.21-1.09,.3-1.31,.35-2.69,.67-4.14,.97-.36,.07-.72,.14-1.09,.21-1.33,.25-2.71,.48-4.14,.68-.36,.05-.73,.1-1.09,.15-1.34,.17-2.72,.33-4.14,.46-.36,.03-.73,.06-1.09,.09-1.35,.11-2.73,.2-4.14,.27-.36,.02-.73,.03-1.09,.05-1.36,.05-2.74,.08-4.14,.09-.24,0-.49,0-.73,0-.12,0-.24,0-.36,0-1.4,0-2.78-.03-4.14-.08-.37-.01-.73-.03-1.09-.04-1.04-.05-2.06-.1-3.07-.17-.36-.02-.72-.05-1.07-.08-.37-.03-.73-.06-1.09-.09-1.41-.12-2.8-.27-4.14-.44-.37-.05-.73-.09-1.09-.15-.86-.12-1.7-.24-2.52-.38-.55-.09-1.09-.19-1.62-.28-.37-.07-.73-.14-1.09-.21-1.45-.29-2.83-.6-4.14-.94-.26-.07-.51-.14-.77-.21-.11-.03-.22-.06-.32-.09-.59-.17-1.17-.34-1.73-.51-.85-.27-1.65-.55-2.41-.84-.37-.14-.74-.29-1.09-.44-1.4-.59-2.63-1.21-3.67-1.87-.16-.1-.32-.2-.47-.31-.19-.13-.37-.26-.55-.39-.19-.14-.37-.29-.55-.43-1.58-1.32-2.44-2.74-2.44-4.23,0-.1,0-.21,.01-.31v-8.42s2.43,0,2.43,0h1.09s4.14,0,4.14,0h1.09s3.23,0,3.23,0h.91s1.09,0,1.09,0h4.14s1.09,0,1.09,0h4.14s1.09,0,1.09,0h4.14s1.09,0,1.09,0h4.14s1.09,0,1.09,0h4.14s1.09,0,1.09,0h4.14s1.09,0,1.09,0h4.14s1.09,0,1.09,0h4.14s1.09,0,1.09,0h4.14s1.09,0,1.09,0h4.14s1.09,0,1.09,0h4.14s1.09,0,1.09,0h4.14s1.09,0,1.09,0h2.06s.01,8.73,.01,8.73h0Z"/><g><path class="cls-18" d="M96.18,351.55v13.78c-.19-.13-.37-.26-.55-.39-.19-.14-.37-.29-.55-.43v-12.96h1.09Z"/><path class="cls-18" d="M101.42,351.54v16.4c-.37-.14-.74-.29-1.09-.44v-15.96h1.09Z"/><path class="cls-18" d="M106.65,351.53v18.06c-.26-.07-.51-.14-.77-.21-.11-.03-.22-.06-.32-.09v-17.76h1.09Z"/><path class="cls-18" d="M111.88,351.52v19.22c-.37-.07-.73-.14-1.09-.21v-19.01h1.09Z"/><path class="cls-18" d="M117.12,351.52v20.04c-.37-.05-.73-.09-1.09-.15v-19.89h1.09Z"/><path class="cls-18" d="M122.35,351.51v20.58c-.37-.03-.73-.06-1.09-.09v-20.49h1.09Z"/><path class="cls-18" d="M127.58,351.5v20.88c-.37-.01-.73-.03-1.09-.04v-20.84h1.09Z"/><path class="cls-18" d="M132.81,351.49v20.97c-.24,0-.49,0-.73,0-.12,0-.24,0-.36,0v-20.97h1.09Z"/><path class="cls-18" d="M138.05,351.49v20.84c-.36,.02-.73,.03-1.09,.05v-20.88h1.09Z"/><path class="cls-18" d="M143.28,351.48v20.49c-.36,.03-.73,.06-1.09,.09v-20.58h1.09Z"/><path class="cls-18" d="M148.51,351.47v19.89c-.36,.05-.73,.1-1.09,.15v-20.04h1.09Z"/><path class="cls-18" d="M153.74,351.46v19c-.36,.07-.72,.14-1.09,.21v-19.21h1.09Z"/><path class="cls-18" d="M158.98,351.45v17.74c-.36,.1-.72,.21-1.09,.3v-18.04h1.09Z"/><path class="cls-18" d="M164.21,351.45v15.9c-.35,.15-.72,.3-1.09,.45v-16.35h1.09Z"/><path class="cls-18" d="M169.44,351.44v12.75c-.33,.3-.69,.59-1.09,.88v-13.63h1.09Z"/></g></g><g><path class="cls-17" d="M171.51,351.54c0,6.18-17.65,11.2-39.42,11.2-2.97,0-5.87-.09-8.66-.27-3.5-.22-6.83-.58-9.91-1.05-2.75-.42-5.31-.93-7.62-1.51-.71-.18-1.39-.36-2.05-.56-2.9-.85-5.33-1.82-7.18-2.89-.36-.21-.7-.42-1.01-.64-1.93-1.32-2.99-2.77-2.99-4.28,0-.14,0-.28,.03-.42,.76-5.99,18.11-10.78,39.39-10.78,5.24,0,10.24,.29,14.81,.82,.88,.1,1.75,.21,2.6,.33,3.71,.52,7.09,1.2,10.03,2.01,.65,.18,1.27,.36,1.88,.55,2.15,.68,4.01,1.43,5.52,2.24,1.56,.84,2.77,1.74,3.54,2.68,.57,.69,.91,1.41,1,2.14,.02,.14,.03,.28,.03,.42Z"/><path class="cls-3" d="M170.47,348.99l-47.04,13.48c-3.5-.22-6.83-.58-9.91-1.05l53.41-15.12c1.56,.84,2.77,1.74,3.54,2.68Z"/><path class="cls-3" d="M149.49,341.49l-52.83,14.97c-.36-.21-.7-.42-1.01-.64l51.24-14.66c.88,.1,1.75,.21,2.6,.33Z"/><path class="cls-3" d="M161.4,344.06l-55.51,15.85c-.71-.18-1.39-.36-2.05-.56l55.68-15.85c.65,.18,1.27,.36,1.88,.55Z"/><path class="cls-18" d="M163.59,351.54c0,.14-.01,.27-.03,.41-.76,4.74-14.59,8.54-31.48,8.54s-30.72-3.79-31.48-8.54c-.02-.14-.03-.27-.03-.41,0-4.93,14.13-8.95,31.51-8.95s31.51,4.01,31.51,8.95Z"/><path class="cls-16" d="M163.56,351.95c-.76,4.74-14.59,8.54-31.48,8.54-.38,0-.75,0-1.13,0-3.77-.04-7.37-.26-10.69-.65-3.32-.38-6.37-.92-9.01-1.59-.67-.17-1.32-.34-1.94-.53-2.82-.84-5.08-1.83-6.59-2.94-.36-.26-.69-.53-.96-.81-.65-.65-1.04-1.33-1.16-2.02,.76-4.74,14.59-8.54,31.48-8.54,2.14,0,4.22,.06,6.25,.18,1.03,.06,2.04,.13,3.04,.22,4.06,.36,7.77,.94,10.95,1.7,.69,.16,1.35,.34,1.99,.52,2.48,.7,4.55,1.51,6.1,2.41,1.51,.88,2.53,1.83,2.96,2.84,.1,.22,.16,.45,.2,.67Z"/><path class="cls-5" d="M163.36,351.28l-32.4,9.2c-3.77-.04-7.37-.26-10.69-.65l40.13-11.4c1.51,.88,2.53,1.83,2.96,2.84Z"/><path class="cls-5" d="M141.37,343.81l-38.65,10.97c-.36-.26-.69-.53-.96-.81l36.57-10.39c1.03,.06,2.04,.13,3.04,.22Z"/><path class="cls-5" d="M154.3,346.03l-43.05,12.23c-.67-.17-1.32-.34-1.94-.53l43-12.21c.69,.16,1.35,.34,1.99,.52Z"/><g><path class="cls-18" d="M136.47,356.62v1.49h-6.65v-1.42c-4.72-.08-9.29-.44-12.12-.94l3.58-2.3c3.11,.52,7.26,.86,10.89,.86,3.16,0,4.29-.19,4.29-.51,0-1.18-18.25-.23-18.25-3.72,0-1.51,3.87-2.79,11.6-3.09v-1.46h6.65v1.43c3.49,.09,6.89,.35,9.57,.78l-3.35,2.29c-3.25-.47-6.32-.7-9.2-.7-3.25,0-4.29,.27-4.29,.59,0,1.13,18.25,.19,18.25,3.64,0,1.45-3.68,2.71-10.99,3.07Z"/><path class="cls-17" d="M136.27,356.12v1.49h-6.65v-1.42c-4.72-.08-9.29-.44-12.12-.94l3.58-2.3c3.11,.52,7.26,.86,10.89,.86,3.16,0,4.29-.19,4.29-.51,0-1.18-18.25-.23-18.25-3.72,0-1.51,3.87-2.79,11.6-3.09v-1.46h6.65v1.43c3.49,.09,6.89,.35,9.57,.78l-3.35,2.29c-3.25-.47-6.32-.7-9.2-.7-3.25,0-4.29,.27-4.29,.59,0,1.12,18.25,.19,18.25,3.64,0,1.45-3.68,2.71-10.99,3.07Z"/></g></g></g></g></g><g><path class="cls-14" d="M338.82,163.5v29.68c0,1.89-1.54,3.42-3.42,3.42h-29.68c-1.7,0-4.36-1.2-5.56-3.94-.06-.12-.12-.23-.15-.35-.06-.18-.12-.35-.18-.54,0-.02-.01-.04-.01-.06t-.01-.02v-.06l-.06-23.42v-6.86c0-1.78,1.35-3.22,3.06-3.41,.12,0,.25-.01,.36-.01l30.28,.12c.14,0,.28,.01,.41,.04h.01c3.05,.34,4.95,3.61,4.95,5.42Z"/><path class="cls-18" d="M336.28,161.35v29.67c0,1.9-1.54,3.42-3.42,3.42h-29.68c-1.3,0-2.43-.72-3.01-1.78-.06-.12-.12-.23-.15-.35-.06-.18-.12-.35-.18-.54,0-.02-.01-.04-.01-.06s-.01-.06-.01-.08c-.04-.2-.06-.4-.06-.61v-29.67c0-1.78,1.35-3.22,3.06-3.41,.12,0,.25-.01,.36-.01h29.68c.35,0,.69,.05,1.01,.15h.01c1.4,.43,2.4,1.72,2.4,3.27Z"/><path class="cls-2" d="M320.18,186.25l-.02,2.96-3.76-.03,.02-2.83c-2.66-.18-5.24-.92-6.83-1.92l2.06-4.57c1.75,1.05,4.09,1.74,6.14,1.76,1.79,.01,2.43-.35,2.43-.99,.02-2.35-10.31-.54-10.25-7.49,.02-3.01,2.23-5.53,6.61-6.1l.02-2.9,3.76,.03-.02,2.85c1.97,.2,3.89,.72,5.4,1.59l-1.93,4.54c-1.83-.95-3.56-1.41-5.19-1.43-1.84-.01-2.43,.51-2.43,1.15-.02,2.24,10.31,.46,10.26,7.33-.02,2.88-2.12,5.37-6.26,6.05Z"/></g><g><polygon class="cls-14" points="356.41 308.84 293.17 308.68 293.17 387.23 356.41 387.44 356.41 308.84"/><path class="cls-16" d="M309.39,318.57c.64,.03,1.18-.45,1.24-1.08,.38-3.95,2.1-17.17,8.6-21.94,1.78-1.31,3.73-1.84,5.96-1.63,11.41,1.07,13.14,18.96,13.4,23.68,.03,.64,.56,1.13,1.2,1.13h0c.68,0,1.23-.57,1.19-1.26-.26-5.18-2.12-24.34-15.54-25.6-2.88-.27-5.5,.44-7.77,2.12-7.23,5.31-9.03,19.02-9.42,23.28-.06,.68,.46,1.28,1.14,1.31h0Z"/><polygon class="cls-18" points="350.91 308.84 287.66 308.68 287.66 387.23 350.91 387.44 350.91 308.84"/><g><path class="cls-14" d="M306.5,318.17c0,1.25-1.02,2.27-2.27,2.27s-2.27-1.02-2.27-2.27,1.02-2.27,2.27-2.27,2.27,1.02,2.27,2.27Z"/><path class="cls-14" d="M336.96,318.17c0,1.25-1.02,2.27-2.27,2.27s-2.27-1.02-2.27-2.27,1.02-2.27,2.27-2.27,2.27,1.02,2.27,2.27Z"/></g><path class="cls-8" d="M304.32,318.75c.64,.03,1.18-.45,1.24-1.08,.38-3.95,2.1-17.17,8.6-21.94,1.78-1.31,3.73-1.84,5.96-1.63,11.41,1.07,13.14,18.96,13.4,23.69,.03,.64,.56,1.13,1.2,1.13h0c.68,0,1.22-.57,1.19-1.26-.26-5.18-2.12-24.34-15.54-25.6-2.88-.27-5.5,.44-7.77,2.12-7.23,5.31-9.03,19.02-9.42,23.28-.06,.68,.46,1.28,1.14,1.31h0Z"/></g></svg>